ffmpeg version 7.0.2-static https://johnvansickle.com/ffmpeg/  Copyright (c) 2000-2024 the FFmpeg developers
  built with gcc 8 (Debian 8.3.0-6)
  configuration: --enable-gpl --enable-version3 --enable-static --disable-debug --disable-ffplay --disable-indev=sndio --disable-outdev=sndio --cc=gcc --enable-fontconfig --enable-frei0r --enable-gnutls --enable-gmp --enable-libgme --enable-gray --enable-libaom --enable-libfribidi --enable-libass --enable-libvmaf --enable-libfreetype --enable-libmp3lame --enable-libopencore-amrnb --enable-libopencore-amrwb --enable-libopenjpeg --enable-librubberband --enable-libsoxr --enable-libspeex --enable-libsrt --enable-libvorbis --enable-libopus --enable-libtheora --enable-libvidstab --enable-libvo-amrwbenc --enable-libvpx --enable-libwebp --enable-libx264 --enable-libx265 --enable-libxml2 --enable-libdav1d --enable-libxvid --enable-libzvbi --enable-libzimg
  libavutil      59.  8.100 / 59.  8.100
  libavcodec     61.  3.100 / 61.  3.100
  libavformat    61.  1.100 / 61.  1.100
  libavdevice    61.  1.100 / 61.  1.100
  libavfilter    10.  1.100 / 10.  1.100
  libswscale      8.  1.100 /  8.  1.100
  libswresample   5.  1.100 /  5.  1.100
  libpostproc    58.  1.100 / 58.  1.100
Input #0, image2, from '/scratch/kjoll/movie_maker/runs/20251119/run_143714_3ee87eb9/tga_images/density_f%08d.tga':
  Duration: 00:00:08.42, start: 0.000000, bitrate: N/A
  Stream #0:0: Video: targa, bgr24, 3840x2160, 12 fps, 12 tbr, 12 tbn
Stream mapping:
  Stream #0:0 -> #0:0 (targa (native) -> h264 (libx264))
Press [q] to stop, [?] for help
[libx264 @ 0x8245bc0] using cpu capabilities: MMX2 SSE2Fast SSSE3 SSE4.2 AVX FMA3 BMI2 AVX2
[libx264 @ 0x8245bc0] profile High, level 5.1, 4:2:0, 8-bit
[libx264 @ 0x8245bc0] 264 - core 164 r3191 4613ac3 - H.264/MPEG-4 AVC codec - Copyleft 2003-2024 - http://www.videolan.org/x264.html - options: cabac=1 ref=3 deblock=1:0:0 analyse=0x3:0x113 me=hex subme=7 psy=1 psy_rd=1.00:0.00 mixed_ref=1 me_range=16 chroma_me=1 trellis=1 8x8dct=1 cqm=0 deadzone=21,11 fast_pskip=1 chroma_qp_offset=-2 threads=36 lookahead_threads=6 sliced_threads=0 nr=0 decimate=1 interlaced=0 bluray_compat=0 constrained_intra=0 bframes=3 b_pyramid=2 b_adapt=1 b_bias=0 direct=1 weightb=1 open_gop=0 weightp=2 keyint=250 keyint_min=12 scenecut=40 intra_refresh=0 rc_lookahead=40 rc=crf mbtree=1 crf=1.0 qcomp=0.60 qpmin=0 qpmax=69 qpstep=4 ip_ratio=1.40 aq=1:1.00
Output #0, mp4, to 'xsh_density_movie.mp4':
  Metadata:
    encoder         : Lavf61.1.100
  Stream #0:0: Video: h264 (avc1 / 0x31637661), yuv420p(progressive), 3840x2160, q=2-31, 12 fps, 12288 tbn
      Metadata:
        encoder         : Lavc61.3.100 libx264
      Side data:
        cpb: bitrate max/min/avg: 0/0/0 buffer size: 0 vbv_delay: N/A
frame=    0 fps=0.0 q=0.0 size=       0KiB time=N/A bitrate=N/A speed=N/A    frame=    0 fps=0.0 q=0.0 size=       0KiB time=N/A bitrate=N/A speed=N/A    frame=    6 fps=4.0 q=4.0 size=    1280KiB time=00:00:00.33 bitrate=31458.5kbits/s speed=0.222x    frame=   53 fps= 26 q=4.0 size=    9984KiB time=00:00:04.25 bitrate=19244.5kbits/s speed=2.12x    [out#0/mp4 @ 0x8241d40] video:19682KiB audio:0KiB subtitle:0KiB other streams:0KiB global headers:0KiB muxing overhead: 0.011307%
frame=  101 fps= 42 q=-1.0 Lsize=   19685KiB time=00:00:08.25 bitrate=19546.3kbits/s speed=3.43x    
[libx264 @ 0x8245bc0] frame I:1     Avg QP: 0.44  size:424348
[libx264 @ 0x8245bc0] frame P:25    Avg QP: 2.28  size:292212
[libx264 @ 0x8245bc0] frame B:75    Avg QP: 7.13  size:165660
[libx264 @ 0x8245bc0] consecutive B-frames:  1.0%  0.0%  0.0% 99.0%
[libx264 @ 0x8245bc0] mb I  I16..4: 88.7%  1.3% 10.1%
[libx264 @ 0x8245bc0] mb P  I16..4:  0.5%  0.0%  0.4%  P16..4:  4.9%  3.5%  3.4%  0.0%  0.0%    skip:87.3%
[libx264 @ 0x8245bc0] mb B  I16..4:  0.0%  0.0%  0.0%  B16..8:  2.3%  2.1%  2.6%  direct: 3.2%  skip:89.8%  L0:35.9% L1:29.2% BI:34.9%
[libx264 @ 0x8245bc0] 8x8 transform intra:1.7% inter:3.0%
[libx264 @ 0x8245bc0] coded y,uvDC,uvAC intra: 14.4% 13.9% 13.8% inter: 6.3% 3.6% 3.6%
[libx264 @ 0x8245bc0] i16 v,h,dc,p: 96%  3%  1%  0%
[libx264 @ 0x8245bc0] i8 v,h,dc,ddl,ddr,vr,hd,vl,hu: 46% 11% 11%  2%  7%  8%  8%  3%  3%
[libx264 @ 0x8245bc0] i4 v,h,dc,ddl,ddr,vr,hd,vl,hu: 27% 16% 16%  3% 13% 13%  7%  3%  3%
[libx264 @ 0x8245bc0] i8c dc,h,v,p: 89%  4%  5%  2%
[libx264 @ 0x8245bc0] Weighted P-Frames: Y:0.0% UV:0.0%
[libx264 @ 0x8245bc0] ref P L0: 68.4%  6.3% 13.9% 11.4%
[libx264 @ 0x8245bc0] ref B L0: 83.5% 12.1%  4.4%
[libx264 @ 0x8245bc0] ref B L1: 94.6%  5.4%
[libx264 @ 0x8245bc0] kb/s:19156.42
